{"title":"BSHD-12 Starring_ Ai Sawamura, Yu Tachibana","uid":14455254,"size":927939851,"categoryP":"porn","categoryS":"movies","magnet":"?xt=urn:btih:5b16953c1e021dde1d8b0b274283a3fc85275c45&amp;dn=BSHD-12+Starring_+Ai+Sawamura%2C+Yu+Tachibana&amp;tr=udp%3A%2F%2Ftracker.leechers-paradise.org%3A6969&amp;tr=udp%3A%2F%2Fzer0day.ch%3A1337&amp;tr=udp%3A%2F%2Fopen.demonii.com%3A1337&amp;tr=udp%3A%2F%2Ftracker.coppersurfer.tk%3A6969&amp;tr=udp%3A%2F%2Fexodus.desync.com%3A6969","seeders":0,"leechers":0,"uploader":"drdre10","files":3,"time":1461789011,"description":"http://www.javlibrary.com/en/?v=javlimj5ta\r\n\r\nmovies is censored (mosaic)\r\n\r\nFormat                                   : AVI\r\nFormat/Info                              : Audio Video Interleave\r\nFile size                                : 883 MiB\r\nDuration                                 : 1h 52mn\r\nOverall bit rate                         : 1 095 Kbps\r\nWriting application                      : VirtualDubMod 1.5.10.2 (build 2540/release)\r\nWriting library                          : VirtualDubMod build 2540/release\r\n\r\nVideo\r\nID                                       : 0\r\nFormat                                   : MPEG-4 Visual\r\nFormat profile                           : Advanced   \r\nFormat settings, BVOP                    : 1\r\nFormat settings, QPel                    : No\r\nFormat settings, GMC                     : No warppoints\r\nFormat settings, Matrix                  : Custom\r\nCodec ID                                 : XVID\r\nCodec ID/Hint                            : XviD\r\nDuration                                 : 1h 52mn\r\nBit rate                                 : 895 Kbps\r\nWidth                                    : 496 pixels\r\nHeight                                   : 368 pixels\r\nDisplay aspect ratio                     : 4:3\r\nFrame rate                               : 29.970 (29970/1000) fps\r\nColor space                              : YUV\r\nChroma subsampling                       : 4:2:0\r\nBit depth                                : 8 bits\r\nScan type                                : Progressive\r\nCompression mode                         : Lossy\r\nBits/(Pixel*Frame)                       : 0.164\r\nStream size                              : 722 MiB (82%)\r\nWriting library                          : XviD 1.2.0SMP (UTC 2006-01-08)\r\n\r\nAudio\r\nID                                       : 1\r\nFormat                                   : AC-3\r\nFormat/Info                              : Audio Coding 3\r\nMode extension                           : CM (complete main)\r\nFormat settings, Endianness              : Big\r\nCodec ID                                 : 2000\r\nDuration                                 : 1h 52mn\r\nBit rate mode                            : Constant\r\nBit rate                                 : 192 Kbps\r\nChannel(s)                               : 2 channels\r\nChannel positions                        : Front: L R\r\nSampling rate                            : 48.0 KHz\r\nFrame rate                               : 31.250 fps (1536 spf)\r\nCompression mode                         : Lossy\r\nStream size                              : 155 MiB (18%)\r\nAlignment                                : Split accross interleaves\r\nInterleave, duration                     : 96 ms (2.88 video frames)\r\nInterleave, preload duration             : 96 ms\r\nLanguage                                 : English","torrent":{"xt":"urn:btih:5b16953c1e021dde1d8b0b274283a3fc85275c45","amp;dn":"BSHD-12+Starring_+Ai+Sawamura%2C+Yu+Tachibana","amp;tr":["udp%3A%2F%2Ftracker.leechers-paradise.org%3A6969","udp%3A%2F%2Fzer0day.ch%3A1337","udp%3A%2F%2Fopen.demonii.com%3A1337","udp%3A%2F%2Ftracker.coppersurfer.tk%3A6969","udp%3A%2F%2Fexodus.desync.com%3A6969"],"infoHash":"5b16953c1e021dde1d8b0b274283a3fc85275c45","infoHashBuffer":{"type":"Buffer","data":[91,22,149,60,30,2,29,222,29,139,11,39,66,131,163,252,133,39,92,69]},"announce":[],"urlList":[]}}